# xmcd
#
# Track frame offsets:
#  150
#  19250
#  42637
#  57812
#  78610
#  99157
#  122405
#  147925
#  186850
#  212045
#  255500
#
# Disc length: 3940 seconds
#
# Revision: 1
# Processed by: cddbd v1.5.2PL0 Copyright (c) Steve Scherf et al.
# Submitted via: Collectorz.com_Music_Collector 6.11
#
DISCID=940f620b
DTITLE=Eric Clapton - Slowhand Blues (2CDs) [CD2)
DYEAR=1993
DGENRE=Blues
TTITLE0=Meet Me In The Bottom
TTITLE1=44
TTITLE2=It's My Life
TTITLE3=Love Her With Feeling
TTITLE4=Torn Down
TTITLE5=Born Under The Bad Sign
TTITLE6=Let Me Love You Baby
TTITLE7=Groving The Blues
TTITLE8=Hear Me Calling
TTITLE9=Ain't Nobody's Business
TTITLE10=Sweet Home Chicago
EXTD=
EXTT0=
EXTT1=
EXTT2=
EXTT3=
EXTT4=
EXTT5=
EXTT6=
EXTT7=
EXTT8=
EXTT9=
EXTT10=
PLAYORDER=
